<svg width="1280" height="458" viewBox="0 0 1280 458" fill="none" xmlns="http://www.w3.org/2000/svg">
<rect width="1280" height="458" fill="#FFFFEF"/>
<mask id="path-1-outside-1_70_7" maskUnits="userSpaceOnUse" x="362" y="149" width="556" height="143" fill="black">
<rect fill="white" x="362" y="149" width="556" height="143"/>
<path d="M474.404 247.6C474.404 275.8 454.204 289 424.804 289H363.004V167.6C363.004 159.8 369.204 153 377.004 153H427.004C452.604 153 469.604 163.2 469.604 187.4C469.604 201.8 463.804 210.4 453.204 215.6C466.604 220.8 474.404 229.6 474.404 247.6ZM441.604 191C441.604 179.6 433.804 176.6 421.204 176.6H390.404V205.8H421.604C432.604 205.8 441.604 202.4 441.604 191ZM445.004 246.8C445.004 232.8 436.804 228.8 422.404 228.8H390.404V264.4H422.804C436.604 264.4 445.004 260.4 445.004 246.8ZM576.623 191.8C576.623 209 569.223 220.2 556.223 223.8C562.023 225.8 566.423 229 569.223 233.2C571.623 237.8 572.823 244.6 573.423 253.4L574.623 280C574.823 284.2 576.423 287.2 579.023 289H548.423C547.023 286.4 546.423 283.6 546.223 280.8C545.623 278.8 545.223 271 545.023 257.8C544.023 241.4 541.023 236.2 524.623 236.2H495.023V289H467.223V167.6C467.223 159.8 473.423 153 481.223 153H532.823C561.023 153 576.623 163.8 576.623 191.8ZM548.423 194.4C548.423 182 541.823 176.6 529.423 176.6H495.023V212.4H527.823C541.023 212.4 548.423 207.6 548.423 194.4ZM572.223 289V167.6C572.223 158 576.823 153 586.223 153H600.023V289H572.223ZM647.024 153C690.224 153 709.024 177.6 709.024 221C709.024 254.4 694.624 279.2 668.424 286.2C661.624 288 652.024 289 639.624 289H593.824V167.6C593.824 158.2 598.424 153.2 607.824 153H647.024ZM680.624 221C680.624 193.8 672.224 176.8 647.024 176.8H621.224V264.4H643.424C671.024 264.4 680.624 249.6 680.624 221ZM700.554 221C699.954 180.8 723.754 149.2 763.954 150.8C779.754 150.8 793.554 154.8 804.954 162.8C815.354 171.2 821.154 183 822.154 198.4H804.954C799.954 198.4 795.954 196 792.754 191.4C787.354 180.4 777.954 175 764.754 175C741.354 175 729.354 189.8 729.154 219.6C728.954 249.4 741.154 265.4 766.154 267.2C784.954 267.2 795.954 254.6 798.954 238.2H782.554C774.754 238.2 768.554 232 768.554 224.2V215.6H823.954V289H816.954C810.354 289 803.954 284.6 803.354 278.4L802.154 271.8C792.554 284.2 782.754 291 763.154 291C724.154 291 700.554 260.8 700.554 221ZM817.905 289V167.6C817.905 158.2 822.505 153.2 831.905 153H916.305V176.6H845.305V205.8H898.305V214.8C898.505 224.2 893.705 228.8 883.905 228.8H845.305V264H916.305V289H817.905Z"/>
</mask>
<path d="M474.404 247.6C474.404 275.8 454.204 289 424.804 289H363.004V167.6C363.004 159.8 369.204 153 377.004 153H427.004C452.604 153 469.604 163.2 469.604 187.4C469.604 201.8 463.804 210.4 453.204 215.6C466.604 220.8 474.404 229.6 474.404 247.6ZM441.604 191C441.604 179.6 433.804 176.6 421.204 176.6H390.404V205.8H421.604C432.604 205.8 441.604 202.4 441.604 191ZM445.004 246.8C445.004 232.8 436.804 228.8 422.404 228.8H390.404V264.4H422.804C436.604 264.4 445.004 260.4 445.004 246.8ZM576.623 191.8C576.623 209 569.223 220.2 556.223 223.8C562.023 225.8 566.423 229 569.223 233.2C571.623 237.8 572.823 244.6 573.423 253.4L574.623 280C574.823 284.2 576.423 287.2 579.023 289H548.423C547.023 286.4 546.423 283.6 546.223 280.8C545.623 278.8 545.223 271 545.023 257.8C544.023 241.4 541.023 236.2 524.623 236.2H495.023V289H467.223V167.6C467.223 159.8 473.423 153 481.223 153H532.823C561.023 153 576.623 163.8 576.623 191.8ZM548.423 194.4C548.423 182 541.823 176.6 529.423 176.6H495.023V212.4H527.823C541.023 212.4 548.423 207.6 548.423 194.4ZM572.223 289V167.6C572.223 158 576.823 153 586.223 153H600.023V289H572.223ZM647.024 153C690.224 153 709.024 177.6 709.024 221C709.024 254.4 694.624 279.2 668.424 286.2C661.624 288 652.024 289 639.624 289H593.824V167.6C593.824 158.2 598.424 153.2 607.824 153H647.024ZM680.624 221C680.624 193.8 672.224 176.8 647.024 176.8H621.224V264.4H643.424C671.024 264.4 680.624 249.6 680.624 221ZM700.554 221C699.954 180.8 723.754 149.2 763.954 150.8C779.754 150.8 793.554 154.8 804.954 162.8C815.354 171.2 821.154 183 822.154 198.4H804.954C799.954 198.4 795.954 196 792.754 191.4C787.354 180.4 777.954 175 764.754 175C741.354 175 729.354 189.8 729.154 219.6C728.954 249.4 741.154 265.4 766.154 267.2C784.954 267.2 795.954 254.6 798.954 238.2H782.554C774.754 238.2 768.554 232 768.554 224.2V215.6H823.954V289H816.954C810.354 289 803.954 284.6 803.354 278.4L802.154 271.8C792.554 284.2 782.754 291 763.154 291C724.154 291 700.554 260.8 700.554 221ZM817.905 289V167.6C817.905 158.2 822.505 153.2 831.905 153H916.305V176.6H845.305V205.8H898.305V214.8C898.505 224.2 893.705 228.8 883.905 228.8H845.305V264H916.305V289H817.905Z" fill="#B9DFB1"/>
<path d="M363.004 289H362.004V290H363.004V289ZM453.204 215.6L452.763 214.702L450.715 215.707L452.842 216.532L453.204 215.6ZM390.404 176.6V175.6H389.404V176.6H390.404ZM390.404 205.8H389.404V206.8H390.404V205.8ZM390.404 228.8V227.8H389.404V228.8H390.404ZM390.404 264.4H389.404V265.4H390.404V264.4ZM474.404 247.6H473.404C473.404 261.436 468.463 271.477 460.013 278.087C451.525 284.727 439.373 288 424.804 288V289V290C439.635 290 452.283 286.673 461.245 279.663C470.245 272.623 475.404 261.964 475.404 247.6H474.404ZM424.804 289V288H363.004V289V290H424.804V289ZM363.004 289H364.004V167.6H363.004H362.004V289H363.004ZM363.004 167.6H364.004C364.004 160.297 369.81 154 377.004 154V153V152C368.598 152 362.004 159.303 362.004 167.6H363.004ZM377.004 153V154H427.004V153V152H377.004V153ZM427.004 153V154C439.696 154 450.098 156.533 457.305 161.926C464.462 167.281 468.604 175.561 468.604 187.4H469.604H470.604C470.604 175.039 466.246 166.119 458.503 160.324C450.81 154.567 439.912 152 427.004 152V153ZM469.604 187.4H468.604C468.604 194.466 467.182 200.026 464.523 204.433C461.866 208.837 457.928 212.169 452.763 214.702L453.204 215.6L453.644 216.498C459.08 213.831 463.342 210.263 466.235 205.467C469.126 200.674 470.604 194.734 470.604 187.4H469.604ZM453.204 215.6L452.842 216.532C459.429 219.088 464.539 222.49 468.014 227.379C471.487 232.265 473.404 238.745 473.404 247.6H474.404H475.404C475.404 238.455 473.421 231.534 469.644 226.221C465.869 220.91 460.379 217.312 453.566 214.668L453.204 215.6ZM441.604 191H442.604C442.604 185.035 440.538 181.07 436.654 178.674C432.878 176.344 427.536 175.6 421.204 175.6V176.6V177.6C427.472 177.6 432.33 178.356 435.604 180.376C438.77 182.33 440.604 185.565 440.604 191H441.604ZM421.204 176.6V175.6H390.404V176.6V177.6H421.204V176.6ZM390.404 176.6H389.404V205.8H390.404H391.404V176.6H390.404ZM390.404 205.8V206.8H421.604V205.8V204.8H390.404V205.8ZM421.604 205.8V206.8C427.174 206.8 432.399 205.945 436.26 203.522C440.201 201.049 442.604 197.015 442.604 191H441.604H440.604C440.604 196.385 438.507 199.751 435.197 201.828C431.808 203.955 427.034 204.8 421.604 204.8V205.8ZM445.004 246.8H446.004C446.004 239.596 443.882 234.734 439.685 231.736C435.569 228.796 429.649 227.8 422.404 227.8V228.8V229.8C429.558 229.8 434.939 230.804 438.523 233.364C442.026 235.866 444.004 240.004 444.004 246.8H445.004ZM422.404 228.8V227.8H390.404V228.8V229.8H422.404V228.8ZM390.404 228.8H389.404V264.4H390.404H391.404V228.8H390.404ZM390.404 264.4V265.4H422.804V264.4V263.4H390.404V264.4ZM422.804 264.4V265.4C429.757 265.4 435.57 264.401 439.656 261.517C443.821 258.577 446.004 253.822 446.004 246.8H445.004H444.004C444.004 253.378 441.987 257.423 438.502 259.883C434.938 262.399 429.65 263.4 422.804 263.4V264.4ZM556.223 223.8L555.956 222.836L552.852 223.696L555.897 224.745L556.223 223.8ZM569.223 233.2L570.109 232.737L570.084 232.69L570.055 232.645L569.223 233.2ZM573.423 253.4L574.422 253.355L574.421 253.343L574.42 253.332L573.423 253.4ZM574.623 280L573.624 280.045L573.624 280.048L574.623 280ZM579.023 289V290H582.224L579.592 288.178L579.023 289ZM548.423 289L547.542 289.474L547.825 290H548.423V289ZM546.223 280.8L547.22 280.729L547.212 280.619L547.18 280.513L546.223 280.8ZM545.023 257.8L546.023 257.785L546.022 257.762L546.021 257.739L545.023 257.8ZM495.023 236.2V235.2H494.023V236.2H495.023ZM495.023 289V290H496.023V289H495.023ZM467.223 289H466.223V290H467.223V289ZM495.023 176.6V175.6H494.023V176.6H495.023ZM495.023 212.4H494.023V213.4H495.023V212.4ZM576.623 191.8H575.623C575.623 200.262 573.802 207.16 570.457 212.359C567.121 217.543 562.23 221.099 555.956 222.836L556.223 223.8L556.49 224.764C563.215 222.901 568.524 219.057 572.139 213.441C575.743 207.84 577.623 200.538 577.623 191.8H576.623ZM556.223 223.8L555.897 224.745C561.532 226.689 565.735 229.771 568.391 233.755L569.223 233.2L570.055 232.645C567.11 228.229 562.513 224.911 556.549 222.855L556.223 223.8ZM569.223 233.2L568.336 233.663C570.633 238.064 571.826 244.682 572.425 253.468L573.423 253.4L574.42 253.332C573.819 244.518 572.613 237.536 570.109 232.737L569.223 233.2ZM573.423 253.4L572.424 253.445L573.624 280.045L574.623 280L575.622 279.955L574.422 253.355L573.423 253.4ZM574.623 280L573.624 280.048C573.835 284.492 575.547 287.81 578.453 289.822L579.023 289L579.592 288.178C577.298 286.59 575.81 283.908 575.622 279.952L574.623 280ZM579.023 289V288H548.423V289V290H579.023V289ZM548.423 289L549.303 288.526C547.99 286.087 547.414 283.437 547.22 280.729L546.223 280.8L545.225 280.871C545.432 283.763 546.055 286.713 547.542 289.474L548.423 289ZM546.223 280.8L547.18 280.513C547.06 280.112 546.93 279.334 546.805 278.117C546.682 276.921 546.571 275.365 546.471 273.448C546.272 269.616 546.122 264.38 546.023 257.785L545.023 257.8L544.023 257.815C544.123 264.42 544.273 269.684 544.474 273.552C544.574 275.485 544.688 277.079 544.815 278.321C544.94 279.541 545.085 280.488 545.265 281.087L546.223 280.8ZM545.023 257.8L546.021 257.739C545.523 249.577 544.53 243.833 541.351 240.192C538.117 236.489 532.86 235.2 524.623 235.2V236.2V237.2C532.786 237.2 537.228 238.511 539.844 241.508C542.516 244.567 543.522 249.623 544.025 257.861L545.023 257.8ZM524.623 236.2V235.2H495.023V236.2V237.2H524.623V236.2ZM495.023 236.2H494.023V289H495.023H496.023V236.2H495.023ZM495.023 289V288H467.223V289V290H495.023V289ZM467.223 289H468.223V167.6H467.223H466.223V289H467.223ZM467.223 167.6H468.223C468.223 160.297 474.029 154 481.223 154V153V152C472.817 152 466.223 159.303 466.223 167.6H467.223ZM481.223 153V154H532.823V153V152H481.223V153ZM532.823 153V154C546.826 154 557.495 156.687 564.657 162.668C571.781 168.616 575.623 177.985 575.623 191.8H576.623H577.623C577.623 177.615 573.665 167.584 565.939 161.132C558.251 154.713 547.019 152 532.823 152V153ZM548.423 194.4H549.423C549.423 188.029 547.724 183.262 544.244 180.109C540.784 176.974 535.745 175.6 529.423 175.6V176.6V177.6C535.501 177.6 539.961 178.926 542.901 181.591C545.822 184.238 547.423 188.371 547.423 194.4H548.423ZM529.423 176.6V175.6H495.023V176.6V177.6H529.423V176.6ZM495.023 176.6H494.023V212.4H495.023H496.023V176.6H495.023ZM495.023 212.4V213.4H527.823V212.4V211.4H495.023V212.4ZM527.823 212.4V213.4C534.51 213.4 539.94 212.191 543.704 209.125C547.513 206.024 549.423 201.187 549.423 194.4H548.423H547.423C547.423 200.813 545.632 204.976 542.441 207.575C539.206 210.209 534.336 211.4 527.823 211.4V212.4ZM572.223 289H571.223V290H572.223V289ZM600.023 153H601.023V152H600.023V153ZM600.023 289V290H601.023V289H600.023ZM572.223 289H573.223V167.6H572.223H571.223V289H572.223ZM572.223 167.6H573.223C573.223 162.944 574.339 159.585 576.423 157.388C578.498 155.202 581.693 154 586.223 154V153V152C581.352 152 577.547 153.298 574.972 156.012C572.406 158.715 571.223 162.656 571.223 167.6H572.223ZM586.223 153V154H600.023V153V152H586.223V153ZM600.023 153H599.023V289H600.023H601.023V153H600.023ZM600.023 289V288H572.223V289V290H600.023V289ZM668.424 286.2L668.68 287.167L668.682 287.166L668.424 286.2ZM593.824 289H592.824V290H593.824V289ZM607.824 153V152H607.814L607.803 152L607.824 153ZM621.224 176.8V175.8H620.224V176.8H621.224ZM621.224 264.4H620.224V265.4H621.224V264.4ZM647.024 153V154C668.434 154 683.617 160.09 693.471 171.382C703.347 182.702 708.024 199.422 708.024 221H709.024H710.024C710.024 199.178 705.301 181.898 694.978 170.068C684.632 158.21 668.815 152 647.024 152V153ZM709.024 221H708.024C708.024 254.138 693.768 278.394 668.166 285.234L668.424 286.2L668.682 287.166C695.48 280.006 710.024 254.662 710.024 221H709.024ZM668.424 286.2L668.168 285.233C661.487 287.002 651.984 288 639.624 288V289V290C652.064 290 661.761 288.998 668.68 287.167L668.424 286.2ZM639.624 289V288H593.824V289V290H639.624V289ZM593.824 289H594.824V167.6H593.824H592.824V289H593.824ZM593.824 167.6H594.824C594.824 163.051 595.937 159.738 598.025 157.538C600.107 155.344 603.312 154.096 607.845 154L607.824 153L607.803 152C602.936 152.104 599.142 153.456 596.574 156.162C594.011 158.862 592.824 162.749 592.824 167.6H593.824ZM607.824 153V154H647.024V153V152H607.824V153ZM680.624 221H681.624C681.624 207.335 679.522 196.036 674.099 188.134C668.623 180.155 659.877 175.8 647.024 175.8V176.8V177.8C659.371 177.8 667.426 181.945 672.45 189.266C677.527 196.664 679.624 207.465 679.624 221H680.624ZM647.024 176.8V175.8H621.224V176.8V177.8H647.024V176.8ZM621.224 176.8H620.224V264.4H621.224H622.224V176.8H621.224ZM621.224 264.4V265.4H643.424V264.4V263.4H621.224V264.4ZM643.424 264.4V265.4C657.398 265.4 667.046 261.647 673.154 254.052C679.221 246.507 681.624 235.372 681.624 221H680.624H679.624C679.624 235.228 677.228 245.793 671.595 252.798C666.003 259.752 657.05 263.4 643.424 263.4V264.4ZM700.554 221H701.554V220.993L701.554 220.985L700.554 221ZM763.954 150.8L763.914 151.799L763.934 151.8H763.954V150.8ZM804.954 162.8L805.582 162.022L805.556 162.001L805.528 161.981L804.954 162.8ZM822.154 198.4V199.4H823.221L823.152 198.335L822.154 198.4ZM792.754 191.4L791.856 191.841L791.89 191.909L791.933 191.971L792.754 191.4ZM729.154 219.6L730.154 219.607L729.154 219.6ZM766.154 267.2L766.082 268.197L766.118 268.2H766.154V267.2ZM798.954 238.2L799.938 238.38L800.153 237.2H798.954V238.2ZM768.554 215.6V214.6H767.554V215.6H768.554ZM823.954 215.6H824.954V214.6H823.954V215.6ZM823.954 289V290H824.954V289H823.954ZM803.354 278.4L804.349 278.304L804.345 278.262L804.338 278.221L803.354 278.4ZM802.154 271.8L803.138 271.621L802.736 269.414L801.363 271.188L802.154 271.8ZM700.554 221L701.554 220.985C701.257 201.078 707.002 183.38 717.713 170.876C728.407 158.391 744.109 151.011 763.914 151.799L763.954 150.8L763.994 149.801C743.599 148.989 727.301 156.609 716.194 169.574C705.106 182.52 699.251 200.722 699.554 221.015L700.554 221ZM763.954 150.8V151.8C779.58 151.8 793.172 155.754 804.379 163.619L804.954 162.8L805.528 161.981C793.936 153.846 779.928 149.8 763.954 149.8V150.8ZM804.954 162.8L804.326 163.578C814.479 171.779 820.172 183.304 821.156 198.465L822.154 198.4L823.152 198.335C822.136 182.696 816.229 170.621 805.582 162.022L804.954 162.8ZM822.154 198.4V197.4H804.954V198.4V199.4H822.154V198.4ZM804.954 198.4V197.4C800.345 197.4 796.628 195.217 793.575 190.829L792.754 191.4L791.933 191.971C795.28 196.783 799.563 199.4 804.954 199.4V198.4ZM792.754 191.4L793.652 190.959C790.876 185.305 787.048 181.047 782.182 178.211C777.323 175.378 771.49 174 764.754 174V175V176C771.218 176 776.685 177.322 781.175 179.939C785.66 182.553 789.232 186.495 791.856 191.841L792.754 191.4ZM764.754 175V174C752.829 174 743.658 177.783 737.474 185.5C731.324 193.174 728.255 204.586 728.154 219.593L729.154 219.6L730.154 219.607C730.253 204.814 733.284 193.926 739.034 186.75C744.75 179.617 753.279 176 764.754 176V175ZM729.154 219.6L728.154 219.593C728.053 234.611 731.073 246.316 737.413 254.512C743.777 262.739 753.371 267.282 766.082 268.197L766.154 267.2L766.226 266.203C753.937 265.318 744.931 260.961 738.995 253.288C733.035 245.584 730.055 234.389 730.154 219.607L729.154 219.6ZM766.154 267.2V268.2C775.794 268.2 783.495 264.963 789.168 259.575C794.827 254.2 798.408 246.743 799.938 238.38L798.954 238.2L797.97 238.02C796.5 246.057 793.081 253.1 787.79 258.125C782.513 263.137 775.314 266.2 766.154 266.2V267.2ZM798.954 238.2V237.2H782.554V238.2V239.2H798.954V238.2ZM782.554 238.2V237.2C775.306 237.2 769.554 231.448 769.554 224.2H768.554H767.554C767.554 232.552 774.202 239.2 782.554 239.2V238.2ZM768.554 224.2H769.554V215.6H768.554H767.554V224.2H768.554ZM768.554 215.6V216.6H823.954V215.6V214.6H768.554V215.6ZM823.954 215.6H822.954V289H823.954H824.954V215.6H823.954ZM823.954 289V288H816.954V289V290H823.954V289ZM816.954 289V288C810.692 288 804.884 283.832 804.349 278.304L803.354 278.4L802.359 278.496C803.024 285.368 810.016 290 816.954 290V289ZM803.354 278.4L804.338 278.221L803.138 271.621L802.154 271.8L801.17 271.979L802.37 278.579L803.354 278.4ZM802.154 271.8L801.363 271.188C796.608 277.33 791.86 282.01 785.934 285.167C780.013 288.322 772.835 290 763.154 290V291V292C773.073 292 780.594 290.278 786.874 286.933C793.148 283.59 798.1 278.67 802.945 272.412L802.154 271.8ZM763.154 291V290C743.933 290 728.564 282.568 717.987 270.273C707.397 257.962 701.554 240.708 701.554 221H700.554H699.554C699.554 241.092 705.511 258.838 716.471 271.577C727.444 284.332 743.375 292 763.154 292V291ZM817.905 289H816.905V290H817.905V289ZM831.905 153V152H831.895L831.884 152L831.905 153ZM916.305 153H917.305V152H916.305V153ZM916.305 176.6V177.6H917.305V176.6H916.305ZM845.305 176.6V175.6H844.305V176.6H845.305ZM845.305 205.8H844.305V206.8H845.305V205.8ZM898.305 205.8H899.305V204.8H898.305V205.8ZM898.305 214.8H897.305V214.811L897.306 214.821L898.305 214.8ZM845.305 228.8V227.8H844.305V228.8H845.305ZM845.305 264H844.305V265H845.305V264ZM916.305 264H917.305V263H916.305V264ZM916.305 289V290H917.305V289H916.305ZM817.905 289H818.905V167.6H817.905H816.905V289H817.905ZM817.905 167.6H818.905C818.905 163.051 820.018 159.738 822.106 157.538C824.188 155.344 827.393 154.096 831.927 154L831.905 153L831.884 152C827.018 152.104 823.223 153.456 820.655 156.162C818.092 158.862 816.905 162.749 816.905 167.6H817.905ZM831.905 153V154H916.305V153V152H831.905V153ZM916.305 153H915.305V176.6H916.305H917.305V153H916.305ZM916.305 176.6V175.6H845.305V176.6V177.6H916.305V176.6ZM845.305 176.6H844.305V205.8H845.305H846.305V176.6H845.305ZM845.305 205.8V206.8H898.305V205.8V204.8H845.305V205.8ZM898.305 205.8H897.305V214.8H898.305H899.305V205.8H898.305ZM898.305 214.8L897.306 214.821C897.402 219.358 896.29 222.543 894.16 224.607C892.019 226.681 888.669 227.8 883.905 227.8V228.8V229.8C888.942 229.8 892.892 228.619 895.551 226.043C898.221 223.457 899.409 219.642 899.305 214.779L898.305 214.8ZM883.905 228.8V227.8H845.305V228.8V229.8H883.905V228.8ZM845.305 228.8H844.305V264H845.305H846.305V228.8H845.305ZM845.305 264V265H916.305V264V263H845.305V264ZM916.305 264H915.305V289H916.305H917.305V264H916.305ZM916.305 289V288H817.905V289V290H916.305V289Z" fill="black" mask="url(#path-1-outside-1_70_7)"/>
<path d="M508.311 364.006H516.801C519.59 364.006 521.77 364.287 523.34 364.85C524.911 365.412 526.235 366.385 527.313 367.768C528.93 369.83 529.739 372.479 529.739 375.713C529.739 379.17 528.813 382.023 526.961 384.273C524.934 386.758 521.676 388 517.188 388H508.311V364.006ZM511.475 366.977V385.029H516.748C523.03 385.029 526.17 381.947 526.17 375.783C526.17 372.631 525.379 370.375 523.797 369.016C522.227 367.656 519.608 366.977 515.94 366.977H511.475ZM545.492 388H542.891C542.598 387.332 542.352 386.594 542.152 385.785C542.141 385.715 542.117 385.615 542.082 385.486C541.848 385.732 541.672 385.914 541.555 386.031C540.008 387.648 538.18 388.457 536.07 388.457C534.488 388.457 533.217 388.012 532.256 387.121C531.295 386.23 530.814 385.041 530.814 383.553C530.814 379.791 533.715 377.91 539.516 377.91L541.959 377.928V376.398C541.959 373.914 540.752 372.672 538.338 372.672C536.287 372.672 535.068 373.404 534.682 374.869L534.611 375.168H531.605L531.641 374.975C532.145 372.104 534.371 370.668 538.32 370.668C542.527 370.668 544.631 372.449 544.631 376.012V383.922C544.631 385.34 544.918 386.699 545.492 388ZM541.959 379.686L539.885 379.65C535.783 379.65 533.732 380.852 533.732 383.254C533.732 385.246 534.91 386.242 537.266 386.242C540.383 386.242 541.941 384.525 541.941 381.092L541.959 379.686ZM550.998 363.549V367.152H548.115V363.549H550.998ZM551.015 371.248V388H548.132V371.248H551.015ZM557.189 362.195V388H554.306V362.195H557.189ZM574.366 371.248L565.999 393.766H563.011L564.962 388.51L558.546 371.248H561.798L566.421 385.539L571.079 371.248H574.366ZM605.328 370.123H601.654C600.682 367.592 598.49 366.326 595.08 366.326C592.432 366.326 590.363 367.193 588.875 368.928C587.387 370.65 586.643 373.053 586.643 376.135C586.643 379.252 587.393 381.689 588.893 383.447C590.404 385.205 592.49 386.084 595.15 386.084C598.467 386.084 600.664 384.771 601.742 382.146H605.645C604.238 386.658 600.699 388.914 595.027 388.914C591.359 388.914 588.453 387.754 586.309 385.434C584.164 383.102 583.092 379.955 583.092 375.994C583.092 372.139 584.188 369.092 586.379 366.854C588.57 364.604 591.541 363.479 595.291 363.479C597.986 363.479 600.23 364.076 602.023 365.271C603.828 366.455 604.93 368.072 605.328 370.123ZM610.588 362.195V374.324C610.716 374.172 610.816 374.061 610.886 373.99C612.726 371.846 614.759 370.773 616.986 370.773C620.724 370.773 622.593 372.572 622.593 376.17V388H619.711V377.629C619.711 374.664 618.252 373.182 615.334 373.182C612.17 373.182 610.588 374.734 610.588 377.84V388H607.705V362.195H610.588ZM640.474 379.932H627.677V380.441C627.677 384.508 629.318 386.541 632.599 386.541C634.779 386.541 636.191 385.762 636.835 384.203L636.958 383.904H639.964L639.911 384.062C639.536 385.457 638.675 386.588 637.327 387.455C635.991 388.311 634.439 388.738 632.669 388.738C630.161 388.738 628.193 387.953 626.763 386.383C625.333 384.812 624.618 382.65 624.618 379.896C624.618 376.99 625.321 374.723 626.728 373.094C628.146 371.465 630.114 370.65 632.634 370.65C635.107 370.65 637.029 371.424 638.4 372.971C639.782 374.518 640.474 376.686 640.474 379.475V379.932ZM637.345 377.928L637.31 377.365C637.134 374.236 635.593 372.672 632.687 372.672C629.991 372.672 628.351 374.424 627.765 377.928H637.345ZM655.858 375.713H652.712L652.659 375.484C652.167 373.727 650.884 372.848 648.809 372.848C645.634 372.848 644.046 375.098 644.046 379.598C644.046 384.203 645.68 386.506 648.95 386.506C651.223 386.506 652.606 385.609 653.098 383.816L653.151 383.658H656.139C655.366 387.033 652.981 388.721 648.985 388.721C643.735 388.721 641.11 385.703 641.11 379.668C641.11 376.809 641.802 374.594 643.184 373.023C644.567 371.441 646.513 370.65 649.02 370.65C652.899 370.65 655.179 372.338 655.858 375.713ZM660.696 362.195V388H657.813V362.195H660.696ZM670.504 371.248L664.756 378.719L671.471 388H667.674L661.241 378.912L666.954 371.248H670.504ZM685.277 364.006V388H682.113V364.006H685.277ZM692.206 371.248V374.359C692.347 374.195 692.452 374.072 692.523 373.99C694.362 371.857 696.437 370.791 698.745 370.791C702.413 370.791 704.247 372.83 704.247 376.908V388H701.364V377.207C701.364 374.547 699.911 373.217 697.005 373.217C695.575 373.217 694.415 373.615 693.525 374.412C692.646 375.197 692.206 376.229 692.206 377.506V388H689.323V371.248H692.206ZM727.246 363.953L736.37 388H732.889L730.586 381.637H719.864L717.543 388H714.063L723.204 363.953H727.246ZM729.549 378.912L725.225 366.309L720.866 378.912H729.549ZM740.592 371.248V374.078C740.732 373.914 740.832 373.791 740.891 373.709C742.566 371.682 744.541 370.668 746.814 370.668C749.1 370.668 750.898 371.436 752.211 372.971C753.523 374.494 754.18 376.592 754.18 379.264C754.18 382.029 753.453 384.262 752 385.961C750.559 387.66 748.666 388.51 746.322 388.51C744.166 388.51 742.35 387.49 740.873 385.451C740.814 385.357 740.721 385.229 740.592 385.064V393.766H737.709V371.248H740.592ZM751.244 379.527C751.244 375.098 749.463 372.883 745.9 372.883C742.326 372.883 740.539 375.133 740.539 379.633C740.539 384.074 742.285 386.295 745.777 386.295C747.488 386.295 748.824 385.697 749.785 384.502C750.758 383.307 751.244 381.648 751.244 379.527ZM758.894 371.248V374.078C759.035 373.914 759.134 373.791 759.193 373.709C760.869 371.682 762.843 370.668 765.117 370.668C767.402 370.668 769.201 371.436 770.513 372.971C771.826 374.494 772.482 376.592 772.482 379.264C772.482 382.029 771.755 384.262 770.302 385.961C768.861 387.66 766.968 388.51 764.625 388.51C762.468 388.51 760.652 387.49 759.175 385.451C759.117 385.357 759.023 385.229 758.894 385.064V393.766H756.011V371.248H758.894ZM769.547 379.527C769.547 375.098 767.765 372.883 764.203 372.883C760.629 372.883 758.841 375.133 758.841 379.633C758.841 384.074 760.588 386.295 764.08 386.295C765.791 386.295 767.127 385.697 768.088 384.502C769.06 383.307 769.547 381.648 769.547 379.527Z" fill="black"/>
</svg>
